<svg xmlns="http://www.w3.org/2000/svg" width="74.924" height="78.388" viewBox="0 0 74.924 78.388">
  <g id="Bee" transform="translate(-1021.503 -249.066)">
    <g id="Bee_bottom" data-name="Bee bottom" transform="translate(1021.503 297.14)">
      <path id="Path_2385" data-name="Path 2385" d="M1069.583,331.014c-2.764-7.364-13.586-10.115-24.173-6.141s-16.928,13.165-14.162,20.531,13.585,10.114,24.172,6.141S1072.347,338.38,1069.583,331.014Z" transform="translate(-1024.689 -323.053)" fill="#f8b42a"/>
      <path id="Stinger" d="M1021.5,354.106l15.508,3.928a22.254,22.254,0,0,1-6.4-17.063Z" transform="translate(-1021.503 -329.329)" fill="#f8b42a"/>
    </g>
    <path id="Path_2428" data-name="Path 2428" d="M1090.849,312.18c-8.2,2.752-8.648,8.775-6.559,15s5.93,10.3,14.128,7.544,13.152-10.032,11.062-16.258S1099.046,309.425,1090.849,312.18Z" transform="translate(-21.62 -21.735)" fill="#424a43"/>
    <path id="Path_2425" data-name="Path 2425" d="M1127.516,312.458c-2.83-4.506-7.2-4.737-11.523-2.805s4.75,14.492,9.07,12.559S1130.344,316.962,1127.516,312.458Z" transform="translate(-32.696 -20.817)" fill="#424a43"/>
    <path id="Path_2427" data-name="Path 2427" d="M1087.369,307.171l-5.1-12.887a25.7,25.7,0,0,0-6.066-13.6,35.136,35.136,0,0,0-15.926-11.385c-5.428-1.71-4.556,1.326-5.9,4.514a8.061,8.061,0,0,0-.477,8.114c1.538,4.322,2.912,3.9,10.952,11.71S1087.369,307.171,1087.369,307.171Z" transform="translate(-11.041 -6.914)" fill="#becaca"/>
    <path id="Path_2426" data-name="Path 2426" d="M1091.562,300.493l-5.835-27.762s-1.342-11.928-5.932-17.644-8.435-7.128-12.427-5.219-3.015,6.275-3.52,12.842a31.641,31.641,0,0,0,.708,14.171c1.621,5.951,2.507,4.029,9.071,10.127A162.922,162.922,0,0,0,1091.562,300.493Z" transform="translate(-14.659)" fill="#e8ecec"/>
    <path id="Stripe_01" data-name="Stripe 01" d="M1078.976,343.058a14.657,14.657,0,0,1-1.693,2.1,22.859,22.859,0,0,1-2.891,2.449,32.38,32.38,0,0,1-3.549-5.285,61.888,61.888,0,0,1-3.042-6.7,66.684,66.684,0,0,1-2.2-7.35,30.36,30.36,0,0,1-.787-5.357,17.419,17.419,0,0,1,3.719-.175,18.427,18.427,0,0,1,3.381.531,33.545,33.545,0,0,0,1.856,9.98A53.761,53.761,0,0,0,1078.976,343.058Z" transform="translate(-15.168 -25.789)" fill="#424a43"/>
    <path id="Stripe_02" data-name="Stripe 02" d="M1045.467,357.29a28.832,28.832,0,0,1-5.587-.828,13.626,13.626,0,0,1-4.146-1.944c-.589-.348-2.027-2.9-3.146-5.892a22.351,22.351,0,0,1-1.333-6.1,11.847,11.847,0,0,1,1.708-3.925,25.74,25.74,0,0,1,3.569-4.351,29.415,29.415,0,0,0,.43,3.561c.335,1.741,1.032,3.975,1.032,3.975s.723,2.062,1.632,4.366a32.584,32.584,0,0,0,1.932,4.271c1.04,2.049,1.653,3,1.653,3Z" transform="translate(-3.415 -29.836)" fill="#424a43"/>
    <path id="Stripe_01-2" data-name="Stripe 01-2" d="M1062.535,351.7s-1.244.537-2.79,1.023-2.508.714-2.508.714a45.166,45.166,0,0,1-3.262-4.4,39.514,39.514,0,0,1-4.43-8.22,36.313,36.313,0,0,1-2.382-8.619,12.759,12.759,0,0,1-.158-4.633s1.123-.626,2.447-1.206,3.168-1.25,3.168-1.25a65.956,65.956,0,0,0,2.976,13.574C1057.759,344.476,1062.535,351.7,1062.535,351.7Z" transform="translate(-8.883 -26.633)" fill="#424a43"/>
  </g>
</svg>
