<svg xmlns="http://www.w3.org/2000/svg" width="359" height="479" viewBox="0 0 359 479">
  <g id="Honey_jar" data-name="Honey jar" transform="translate(-861 -5246)">
    <rect id="Rectangle_272" data-name="Rectangle 272" width="350" height="448" rx="98" transform="translate(865 5277)" fill="#ffd257"/>
    <rect id="Rectangle_273" data-name="Rectangle 273" width="359" height="80" rx="21" transform="translate(861 5246)" fill="#bfbfbf" opacity="0.997"/>
    <g id="Task_Icon" data-name="Task Icon" transform="translate(40.751 5126.519)">
      <path id="Path_2435" data-name="Path 2435" d="M202.325,75.9l-.745-1.5c0,.06-.006.121-.009.18L170.056,19.562A38.913,38.913,0,0,0,136.319,0L71.611.1A38.685,38.685,0,0,0,38.1,19.813l-.924,1.592L5.451,76.126a38.732,38.732,0,0,0-.417,38.9L37.3,171.359A38.912,38.912,0,0,0,71.04,190.92l1.8-.022-.02-.013,62.9-.087a38.721,38.721,0,0,0,33.541-19.691l31.729-54.721.923-1.592A38.73,38.73,0,0,0,202.325,75.9ZM43.677,160.189q-.444-.8-.868-1.606Q43.233,159.389,43.677,160.189Zm-2.1-4.037q-.337-.692-.658-1.385Q41.239,155.462,41.574,156.153Zm-1.852-4.07c-.161-.38-.318-.762-.473-1.145C39.406,151.32,39.561,151.7,39.723,152.083Zm-1.614-4.1c-.1-.281-.2-.563-.3-.845C37.91,147.415,38.007,147.7,38.109,147.979Zm-1.38-4.131c-.043-.14-.083-.281-.125-.421C36.646,143.567,36.686,143.707,36.729,143.847Z" transform="translate(904.289 479.81) rotate(-90)" fill="#f8b42a"/>
    </g>
    <g id="Group_779" data-name="Group 779" transform="translate(861.92 5418.203)">
      <path id="Path_26" data-name="Path 26" d="M213.434,74.294V65.035A17.618,17.618,0,0,0,204.9,49.867l-.309-.2c-.254-.167-.518-.312-.615-.541l-16.47-9.543a18.249,18.249,0,0,0-17.78.118L152.413,49.776a17.6,17.6,0,0,0-8.671,15.259v8.648A34.8,34.8,0,0,0,153.99,99.622l18.237,18.151c.824,1.194,3.989,6.187,2.5,10.5l2.112-2.124,0,.013,1.963-1.985-.024-.024L203.3,99.506A34.766,34.766,0,0,0,213.434,74.294ZM161.918,57.838a23.7,23.7,0,0,1,16.614-6.8h.058a23.753,23.753,0,0,1,11.133,2.746l1.461.847a23.935,23.935,0,0,1,3.688,2.835c.558.756.959,1.716-.112,1.979a63.606,63.606,0,0,1-16.171,1.838,69.647,69.647,0,0,1-15.743-1.733c-.569-.133-.241-.034-.795-.182C161.708,59.28,161.378,58.66,161.918,57.838Zm30.066,37.441-11.457,11.512a3.759,3.759,0,0,1-3.808-.072L165.012,95.067c-1.279-1.578-.033-1.75,1.025-1.671.252.035.506.067.759.1l.365.066s-.1-.024-.271-.054a84.1,84.1,0,0,0,10.686.679,83.007,83.007,0,0,0,13.874-1.149C192.63,92.945,194.073,93.154,191.984,95.279Zm2.891-2.9-.207.038.213-.045Zm7.4-14.725c-.15.9-.436,1-.587,1.065-6.575,2.884-15.107,4.468-24.116,4.468a64.236,64.236,0,0,1-21.744-3.515c-.163-.06-.644-.406-.892-1.541a23.918,23.918,0,0,1-.21-2.69c.006-.1.016-.208.016-.313V73.878q.048-1.11.2-2.2c.5-2.843,1.042-2.588,1.294-2.512a78.038,78.038,0,0,0,22.352,3.129,78.4,78.4,0,0,0,21.869-2.985c.232-.068,1.044-.723,1.764,2.387A24.087,24.087,0,0,1,202.279,77.65Z" fill="#fff"/>
    </g>
  </g>
</svg>
